<svg width="89" height="89" viewBox="0 0 89 89" fill="none" xmlns="http://www.w3.org/2000/svg">
<circle cx="76.2857" cy="12.7143" r="12.7143" fill="#F57773"/>
<path fill-rule="evenodd" clip-rule="evenodd" d="M38.1428 25.4286C37.2998 25.4286 36.4913 25.7635 35.8952 26.3596C35.3109 26.9439 34.9775 27.7324 34.9647 28.5574C34.974 29.1783 34.8002 29.7879 34.4711 30.3085C34.2323 30.6862 33.9117 31.017 33.52 31.2713C33.3821 31.3613 33.2368 31.4408 33.0852 31.5088C29.982 32.9892 27.3362 35.2813 25.4286 38.1429C23.522 41.0027 22.424 44.3242 22.25 47.756V57.2143C22.25 57.342 22.2423 57.4695 22.2269 57.5962C21.9719 59.7036 21.2977 61.7347 20.2482 63.5714H56.0375C54.988 61.7347 54.3138 59.7036 54.0587 57.5962C54.0434 57.4695 54.0357 57.342 54.0357 57.2143V47.756C53.8617 44.3242 52.7637 41.0027 50.8571 38.1429C48.9373 35.2631 46.2701 32.9601 43.1412 31.4807C42.0301 30.9552 41.3214 29.8363 41.3214 28.6071C41.3214 27.7641 40.9865 26.9557 40.3904 26.3596C39.7943 25.7635 38.9858 25.4286 38.1428 25.4286ZM28.8296 26.5592C29.2176 24.7947 30.1026 23.1619 31.4001 21.8644C33.1884 20.0761 35.6138 19.0714 38.1428 19.0714C40.6719 19.0714 43.0973 20.0761 44.8856 21.8644C46.1831 23.1619 47.0681 24.7947 47.4561 26.5592C50.9397 28.5189 53.9201 31.2768 56.1466 34.6165C58.7063 38.4562 60.173 42.92 60.3893 47.5295C60.3917 47.5792 60.3928 47.6289 60.3928 47.6786V57.0088C60.5914 58.427 61.107 59.7831 61.9022 60.9759C62.7304 62.2181 63.8386 63.2485 65.1377 63.9841C66.3938 64.6954 67.0129 66.1639 66.6451 67.5598C66.2773 68.9558 65.015 69.9286 63.5714 69.9286H12.7143C11.2707 69.9286 10.0084 68.9558 9.64059 67.5598C9.27279 66.1639 9.89186 64.6954 11.148 63.9841C12.4471 63.2485 13.5553 62.2181 14.3834 60.9759C15.1787 59.7831 15.6943 58.427 15.8928 57.0088V47.6786C15.8928 47.6289 15.894 47.5792 15.8963 47.5295C16.1127 42.92 17.5793 38.4562 20.1391 34.6165C22.3656 31.2768 25.346 28.5189 28.8296 26.5592Z" fill="black"/>
<path fill-rule="evenodd" clip-rule="evenodd" d="M28.6072 63.5714C30.3626 63.5714 31.7857 64.9945 31.7857 66.75V69.9286C31.7857 71.6146 32.4555 73.2315 33.6477 74.4237C34.8399 75.6159 36.4569 76.2857 38.1429 76.2857C39.8289 76.2857 41.4459 75.6159 42.6381 74.4237C43.8302 73.2315 44.5 71.6146 44.5 69.9286V66.75C44.5 64.9945 45.9231 63.5714 47.6786 63.5714C49.4341 63.5714 50.8572 64.9945 50.8572 66.75V69.9286C50.8572 73.3006 49.5176 76.5345 47.1332 78.9189C44.7488 81.3033 41.5149 82.6428 38.1429 82.6428C34.7708 82.6428 31.5369 81.3033 29.1525 78.9189C26.7681 76.5345 25.4286 73.3006 25.4286 69.9286V66.75C25.4286 64.9945 26.8517 63.5714 28.6072 63.5714Z" fill="black"/>
<path fill-rule="evenodd" clip-rule="evenodd" d="M55.4692 20.1657C56.6204 18.8403 58.628 18.6991 59.9533 19.8502C64.0628 23.4193 67.3644 27.8234 69.638 32.7688C70.3712 34.3638 69.6727 36.2512 68.0777 36.9845C66.4827 37.7178 64.5953 37.0193 63.862 35.4243C61.9657 31.2997 59.2122 27.6266 55.7848 24.6498C54.4594 23.4987 54.3181 21.4911 55.4692 20.1657Z" fill="black"/>
<path fill-rule="evenodd" clip-rule="evenodd" d="M20.8093 20.1648C21.9609 21.4897 21.8205 23.4973 20.4955 24.649C17.0702 27.6263 14.3187 31.2994 12.4241 35.4234C11.6913 37.0186 9.80404 37.7177 8.20883 36.9849C6.61363 36.2521 5.91453 34.3648 6.64736 32.7696C8.91895 27.8249 12.2181 23.4209 16.3251 19.851C17.65 18.6994 19.6576 18.8398 20.8093 20.1648Z" fill="black"/>
</svg>
